<svg width="35" height="34" viewBox="0 0 35 34" fill="none" xmlns="http://www.w3.org/2000/svg">
<mask id="path-1-inside-1_3001_1685" fill="white">
<path d="M34.5 17C34.5 26.3888 26.8888 34 17.5 34C8.11116 34 0.5 26.3888 0.5 17C0.5 7.61116 8.11116 0 17.5 0C26.8888 0 34.5 7.61116 34.5 17ZM2.2 17C2.2 25.45 9.05004 32.3 17.5 32.3C25.95 32.3 32.8 25.45 32.8 17C32.8 8.55004 25.95 1.7 17.5 1.7C9.05004 1.7 2.2 8.55004 2.2 17Z"/>
</mask>
<path d="M34.5 17C34.5 26.3888 26.8888 34 17.5 34C8.11116 34 0.5 26.3888 0.5 17C0.5 7.61116 8.11116 0 17.5 0C26.8888 0 34.5 7.61116 34.5 17ZM2.2 17C2.2 25.45 9.05004 32.3 17.5 32.3C25.95 32.3 32.8 25.45 32.8 17C32.8 8.55004 25.95 1.7 17.5 1.7C9.05004 1.7 2.2 8.55004 2.2 17Z" stroke="url(#paint0_linear_3001_1685)" stroke-width="1.94286" mask="url(#path-1-inside-1_3001_1685)"/>
<path d="M17.5008 4.6748C10.6937 4.6748 5.17578 10.1929 5.17578 16.9998C5.17578 23.8068 10.6938 29.3248 17.5008 29.3248C24.3076 29.3248 29.8258 23.8068 29.8258 16.9998C29.8256 10.193 24.3076 4.6748 17.5008 4.6748ZM24.1982 17.269C24.1982 23.7698 17.5008 24.7624 17.5008 24.7624C17.5008 24.7624 10.8032 23.7698 10.8032 17.269V13.9931C12.4886 13.5408 13.6604 12.0132 13.6604 10.268L17.5008 9.23719L21.341 10.268C21.341 12.013 22.5128 13.5406 24.1982 13.9931V17.269Z" fill="url(#paint1_linear_3001_1685)"/>
<path d="M17.4704 20.8386C15.7052 20.8386 14.5678 20.0306 14.4803 18.6617L14.4751 18.5793H15.9419L15.9522 18.6359C16.05 19.2123 16.6624 19.5726 17.5116 19.5726C18.371 19.5726 18.9114 19.1969 18.9114 18.6308V18.6256C18.9114 18.1213 18.546 17.8691 17.6248 17.6787L16.8425 17.5243C15.3758 17.2309 14.6347 16.531 14.6347 15.4142V15.4091C14.6347 14.0504 15.8184 13.1549 17.4653 13.1549C19.1842 13.1549 20.2392 14.0144 20.3113 15.3164L20.3164 15.4142H18.8497L18.8445 15.3525C18.7673 14.7709 18.2321 14.4158 17.4653 14.4158C16.6675 14.421 16.1889 14.7864 16.1889 15.3164V15.3216C16.1889 15.7899 16.5698 16.0627 17.4241 16.2325L18.2115 16.3921C19.7657 16.7008 20.4657 17.3339 20.4657 18.5021V18.5073C20.4657 19.9328 19.3437 20.8386 17.4704 20.8386Z" fill="url(#paint2_linear_3001_1685)"/>
<defs>
<linearGradient id="paint0_linear_3001_1685" x1="7.38718" y1="4.5956" x2="13.7972" y2="34.7862" gradientUnits="userSpaceOnUse">
<stop stop-color="#B4ADFF"/>
<stop offset="1" stop-color="#5F44F8"/>
</linearGradient>
<linearGradient id="paint1_linear_3001_1685" x1="10.169" y1="8.00662" x2="14.8163" y2="29.8948" gradientUnits="userSpaceOnUse">
<stop stop-color="#B4ADFF"/>
<stop offset="1" stop-color="#5F44F8"/>
</linearGradient>
<linearGradient id="paint2_linear_3001_1685" x1="15.5586" y1="12.4671" x2="28.0257" y2="15.1688" gradientUnits="userSpaceOnUse">
<stop stop-color="#B4ADFF"/>
<stop offset="1" stop-color="#5F44F8"/>
</linearGradient>
</defs>
</svg>
